<svg width="30" height="29" viewBox="0 0 30 29" fill="none" xmlns="http://www.w3.org/2000/svg">
<path fill-rule="evenodd" clip-rule="evenodd" d="M29 14.984H15C14.447 14.984 14 15.433 14 15.985C14 16.538 14.447 16.986 15 16.986H29C29.553 16.986 30 16.538 30 15.985C30 15.433 29.553 14.984 29 14.984ZM29 8.978L21 9C20.447 9 20 9.426 20 9.979C20 10.532 20.447 11 21 11L29 10.979C29.553 10.979 30 10.532 30 9.979C30 9.426 29.553 8.978 29 8.978ZM29 20.991H15C14.447 20.991 14 21.439 14 21.992C14 22.545 14.447 22.993 15 22.993H29C29.553 22.993 30 22.545 30 21.992C30 21.439 29.553 20.991 29 20.991ZM17 5H29C29.553 5 30 4.525 30 3.973C30 3.419 29.553 2.971 29 2.971H17C16.447 2.971 16 3.419 16 3.973C16 4.525 16.447 5 17 5ZM16.687 10.697C17.079 10.304 17.079 9.666 16.687 9.271L9.74498 1.283C9.53498 1.073 9.25798 0.983001 8.98398 0.998001C8.71098 0.983001 8.43398 1.073 8.22398 1.283L1.28198 9.271C0.889976 9.666 0.889976 10.304 1.28198 10.697C1.67398 11.091 2.30998 11.091 2.70098 10.697L7.99998 4.601V29H9.99998V4.636L15.268 10.697C15.659 11.091 16.295 11.091 16.687 10.697ZM29 27H15C14.447 27 14 27.446 14 27.999C14 28.552 14.447 29 15 29H29C29.553 29 30 28.552 30 27.999C30 27.446 29.553 27 29 27Z" fill="black"/>
</svg>
