<svg width="30" height="29" viewBox="0 0 30 29" fill="none" xmlns="http://www.w3.org/2000/svg">
<path fill-rule="evenodd" clip-rule="evenodd" d="M29 12.014H15C14.447 12.014 14 12.462 14 13.015C14 13.567 14.447 14 15 14L29 14.016C29.553 14.016 30 13.567 30 13.015C30 12.462 29.553 12.014 29 12.014ZM29 6.007H15C14.447 6.007 14 6.455 14 7.008C14 7.561 14.447 8 15 8H29C29.553 8 30 7.561 30 7.008C30 6.455 29.553 6.007 29 6.007ZM29 18.021H21C20.447 18.021 20 18.469 20 19.021C20 19.574 20.447 20 21 20H29C29.553 20 30 19.574 30 19.021C30 18.469 29.553 18.021 29 18.021ZM29 24.027H17C16.447 24.027 16 24.476 16 25.028C16 25.581 16.447 26.029 17 26.029L29 26C29.553 26 30 25.581 30 25.028C30 24.476 29.553 24.027 29 24.027ZM15 2.002L29 2C29.553 2 30 1.554 30 1.001C30 0.448 29.553 0 29 0H15C14.447 0 14 0.448 14 1.001C14 1.554 14.447 2.002 15 2.002ZM16.687 18.303C16.295 17.909 15.659 17.909 15.268 18.303L10 24.364V0H8.00001V24.4L2.70101 18.303C2.31001 17.909 1.67401 17.909 1.28201 18.303C0.890007 18.697 0.890007 19.335 1.28201 19.729L8.22401 27.717C8.43401 27.927 8.71101 28.017 8.98401 28.002C9.25801 28.017 9.53501 27.927 9.74501 27.717L16.687 19.729C17.079 19.335 17.079 18.697 16.687 18.303Z" fill="black"/>
</svg>
